<?xml version="1.0" standalone="no"?>
<!DOCTYPE svg PUBLIC "-//W3C//DTD SVG 20010904//EN"
 "http://www.w3.org/TR/2001/REC-SVG-20010904/DTD/svg10.dtd">
<svg version="1.0" xmlns="http://www.w3.org/2000/svg"
 width="960.000000pt" height="960.000000pt" viewBox="0 0 960.000000 960.000000"
 preserveAspectRatio="xMidYMid meet">

<g transform="translate(0.000000,960.000000) scale(0.100000,-0.100000)"
fill="#000000" stroke="none">
<path d="M4480 9589 c-999 -66 -1964 -451 -2745 -1095 -161 -133 -490 -461
-617 -614 -637 -772 -1002 -1652 -1100 -2655 -16 -170 -16 -683 0 -850 82
-831 341 -1566 788 -2235 555 -833 1360 -1473 2299 -1830 196 -75 255 -84 352
-55 61 18 126 83 142 141 11 39 16 955 6 966 -3 2 -37 -1 -77 -8 -254 -43
-576 -50 -769 -16 -227 41 -405 123 -541 250 -91 86 -162 188 -208 298 -81
198 -227 440 -353 586 -47 55 -95 95 -168 143 -125 82 -180 132 -204 184 -17
38 -17 42 -1 67 30 45 77 58 211 58 102 0 132 -4 200 -27 192 -64 381 -227
541 -467 146 -221 283 -349 456 -429 140 -65 199 -76 398 -76 156 0 186 3 281
27 58 15 139 40 180 56 l74 30 21 93 c49 225 118 370 237 496 47 50 48 52 26
57 -13 2 -94 14 -179 26 -561 82 -1003 264 -1325 548 -168 148 -298 323 -406
547 -168 347 -242 714 -243 1200 -1 242 8 331 49 510 63 270 204 553 379 759
l57 66 -25 83 c-53 177 -61 236 -60 477 0 205 2 236 27 353 29 138 91 334 111
355 9 9 43 13 112 13 276 0 681 -159 1107 -434 l99 -64 136 34 c332 82 590
114 976 120 315 6 466 -2 726 -38 145 -20 423 -76 514 -103 l49 -15 86 58
c304 204 685 378 926 424 111 22 201 28 259 20 l49 -8 24 -65 c35 -92 80 -268
97 -380 41 -266 25 -526 -49 -757 l-23 -73 38 -42 c109 -126 223 -305 290
-458 113 -256 160 -499 160 -818 -1 -705 -180 -1262 -532 -1646 -325 -356
-823 -581 -1483 -671 -187 -25 -175 -17 -117 -79 123 -130 206 -316 249 -561
16 -91 18 -167 15 -854 -2 -558 0 -768 9 -804 8 -37 24 -63 58 -97 106 -110
226 -95 626 78 283 122 485 232 750 407 271 179 456 328 694 560 311 303 550
603 768 963 846 1398 920 3136 198 4600 -233 473 -505 856 -875 1236 -984
1007 -2345 1527 -3750 1435z"/>
</g>
</svg>
