<?xml version="1.0" standalone="no"?>
<!DOCTYPE svg PUBLIC "-//W3C//DTD SVG 20010904//EN"
 "http://www.w3.org/TR/2001/REC-SVG-20010904/DTD/svg10.dtd">
<svg version="1.0" xmlns="http://www.w3.org/2000/svg"
 width="1024.000000pt" height="1024.000000pt" viewBox="0 0 1024.000000 1024.000000"
 preserveAspectRatio="xMidYMid meet">

<g transform="translate(0.000000,1024.000000) scale(0.100000,-0.100000)"
fill="#000000" stroke="none">
<path d="M2328 9319 c-113 -13 -290 -61 -397 -107 -395 -171 -733 -536 -865
-933 -77 -233 -70 66 -74 -2974 -2 -1945 0 -2743 8 -2800 28 -200 92 -390 187
-547 74 -123 129 -194 237 -305 217 -226 460 -367 755 -441 l106 -27 2725 -2
c2666 -3 2727 -3 2840 16 349 60 668 247 909 534 173 207 270 401 334 669 l21
93 4 2690 c2 1952 0 2717 -8 2790 -39 342 -184 635 -441 894 -204 205 -434
342 -687 410 -195 52 -94 51 -2937 49 -1452 0 -2675 -5 -2717 -9z m734 -1378
c180 -46 323 -161 413 -332 51 -97 68 -175 67 -299 -2 -202 -79 -366 -226
-477 -124 -94 -257 -134 -446 -135 -129 -1 -206 14 -309 62 -175 82 -288 204
-348 377 -23 67 -27 94 -27 198 -1 202 39 311 163 435 89 90 201 152 316 174
109 22 306 20 397 -3z m3683 -1691 c266 -46 501 -167 689 -355 170 -168 307
-444 365 -732 45 -219 44 -211 48 -1450 l4 -1193 -596 0 -595 0 0 983 c0 970
-6 1188 -34 1324 -55 260 -181 416 -386 477 -128 38 -322 29 -445 -20 -118
-48 -276 -197 -353 -334 -69 -122 -66 -63 -72 -1315 l-5 -1130 -605 0 -605 0
5 975 c6 1184 4 2611 -4 2663 l-6 37 610 0 610 0 0 -247 0 -246 43 63 c57 86
183 218 272 285 230 173 502 251 825 239 69 -3 175 -14 235 -24z m-3295 -1890
l0 -1840 -605 0 -605 0 0 1840 0 1840 605 0 605 0 0 -1840z"/>
<path d="M5355 5660 c-3 -5 -1 -10 4 -10 6 0 11 5 11 10 0 6 -2 10 -4 10 -3 0
-8 -4 -11 -10z"/>
</g>
</svg>
